# xmcd
#
# Track frame offsets: 
#        150
#        15542
#        28885
#        45992
#        65035
#        70335
#        83965
#        99435
#        115517
#        138815
#        155950
#
# Disc length: 2226 seconds
#
# Revision: 9
# Processed by: cddbd v1.5.2PL0 Copyright (c) Steve Scherf et al.
# Submitted via: ExactAudioCopy v1.0b3
#
DISCID=8e08b00b
DTITLE=Wolfgang Petry - Manche mögen's heiß
DYEAR=1988
DGENRE=Pop
TTITLE0=Schlechte Karten
TTITLE1=Wo Ist Das Problem
TTITLE2=Immer Und Ewig
TTITLE3=Ich Träume Oft Von Dir
TTITLE4=Viele Kleine Wunder
TTITLE5=voller Seligkeit
TTITLE6=Tu Was
TTITLE7=Noah
TTITLE8=Manche Mögen´s Heiß
TTITLE9=Liebe Für Eine Nacht
TTITLE10=Save The World Whith Love
EXTD=YEAR: 1988
EXTT0=
EXTT1=
EXTT2=
EXTT3=
EXTT4=
EXTT5=
EXTT6=
EXTT7=
EXTT8=
EXTT9=
EXTT10=
PLAYORDER=
